<svg xmlns="http://www.w3.org/2000/svg" viewBox="0 0 26 26" id="Window"><path style="line-height:normal;text-indent:0;text-align:start;text-decoration-line:none;text-transform:none;block-progression:tb" d="M13 0C5.826 0 0 5.826 0 13s5.826 13 13 13 13-5.826 13-13S20.174 0 13 0zm0 1.002c6.633 0 12 5.365 12 11.998 0 6.633-5.367 12-12 12S1 19.633 1 13 6.367 1.002 13 1.002zM6 8v1h8V8H6zm9 0v1h1V8h-1zm2 0v1h1V8h-1zm2 0v1h1V8h-1zM6 10v8h14v-8H6zm8.045.777.894.446-2.984 6-.894-.446 2.984-6zm-4.399.87.708.707L8.707 14l1.647 1.646-.708.708L7.293 14l2.353-2.354zm6.708 0L18.707 14l-2.353 2.354-.708-.708L17.293 14l-1.647-1.646.708-.708z" color="#000" font-family="sans-serif" font-weight="400" overflow="visible" fill="#dd7241" class="color000000 svgShape"></path></svg>