<svg xmlns="http://www.w3.org/2000/svg" enable-background="new 0 0 20 20" viewBox="0 0 20 20" id="Design"><path fill="none" stroke="#000000" stroke-miterlimit="10" d="M6.9 10L2.1 5.3c-.2-.2-.2-.5 0-.7l2.4-2.4c.2-.2.5-.2.7 0l4.7 4.7M13 10l4.8 4.8c.2.2.2.5 0 .7l-2.4 2.4c-.2.2-.5.2-.7 0L10 13.1" class="colorStroke000000 svgStroke"></path><path d="M13.8 14.2h1.4v2.9h-1.4z" transform="rotate(-134.999 14.563 15.678)" fill="#dd7241" class="color000000 svgShape"></path><path d="M11.3 13.4h1.4v1.5h-1.4z" transform="rotate(-134.999 12.015 14.136)" fill="#dd7241" class="color000000 svgShape"></path><path d="M5.7 6.1h1.4V9H5.7z" transform="rotate(-134.999 6.382 7.497)" fill="#dd7241" class="color000000 svgShape"></path><path d="M3.1 5.2h1.4v1.5H3.1z" transform="rotate(-134.999 3.834 5.956)" fill="#dd7241" class="color000000 svgShape"></path><path fill="none" stroke="#000000" stroke-linecap="round" stroke-linejoin="round" stroke-miterlimit="10" d="m14 2.9.6-.6c.4-.4 1-.4 1.4 0L17.7 4c.4.4.4 1 0 1.4l-.6.6" class="colorStroke000000 svgStroke"></path><path fill="none" stroke="#000000" stroke-linecap="round" stroke-linejoin="round" stroke-miterlimit="10" d="M7.8 3.3h4.3v13.5H7.8z" transform="rotate(45.001 9.921 10.082)" class="colorStroke000000 svgStroke"></path><path d="M2.9 9.4h13.8v1.4H2.9z" transform="rotate(-45.001 9.867 10.137)" fill="#dd7241" class="color000000 svgShape"></path><path fill="none" stroke="#000000" stroke-linecap="round" stroke-linejoin="round" stroke-miterlimit="10" d="m2.1 17.9 1.5-4.6 3.1 3.1z" class="colorStroke000000 svgStroke"></path><path d="m2.6 16.4-.5 1.5 1.5-.5z" fill="#dd7241" class="color000000 svgShape"></path><path fill="none" stroke="#000000" stroke-linecap="round" stroke-linejoin="round" stroke-miterlimit="10" d="m17.3 5.8-1.2 1.1-3-3 1.1-1.2" class="colorStroke000000 svgStroke"></path></svg>